/* XPM */
static char *dummy[]={
"3 488 2 1",
". c #000000",
"# c #999999",
"..#",
"..#",
"..#",
"..#",
"..#",
"..#",
"..#",
"..#",
"..#",
"..#",
"..#",
"..#",
"..#",
"..#",
"..#",
"..#",
"..#",
"..#",
"..#",
"..#",
"..#",
"..#",
"..#",
"..#",
"..#",
"..#",
"..#",
"..#",
"..#",
"..#",
"..#",
"..#",
"..#",
"..#",
"..#",
"..#",
"..#",
"..#",
"..#",
"..#",
"..#",
"..#",
"..#",
"..#",
"..#",
"..#",
"..#",
"..#",
"..#",
"..#",
"..#",
"..#",
"..#",
"..#",
"..#",
"..#",
"..#",
"..#",
"..#",
"..#",
"..#",
"..#",
"..#",
"..#",
"..#",
"..#",
"..#",
"..#",
"..#",
"..#",
"..#",
"..#",
"..#",
"..#",
"..#",
"..#",
"..#",
"..#",
"..#",
"..#",
"..#",
"..#",
"..#",
"..#",
"..#",
"..#",
"..#",
"..#",
"..#",
"..#",
"..#",
"..#",
"..#",
"..#",
"..#",
"..#",
"..#",
"..#",
"..#",
"..#",
"..#",
"..#",
"..#",
"..#",
"..#",
"..#",
"..#",
"..#",
"..#",
"..#",
"..#",
"..#",
"..#",
"..#",
"..#",
"..#",
"..#",
"..#",
"..#",
"..#",
"..#",
"..#",
"..#",
"..#",
"..#",
"..#",
"..#",
"..#",
"..#",
"..#",
"..#",
"..#",
"..#",
"..#",
"..#",
"..#",
"..#",
"..#",
"..#",
"..#",
"..#",
"..#",
"..#",
"..#",
"..#",
"..#",
"..#",
"..#",
"..#",
"..#",
"..#",
"..#",
"..#",
"..#",
"..#",
"..#",
"..#",
"..#",
"..#",
"..#",
"..#",
"..#",
"..#",
"..#",
"..#",
"..#",
"..#",
"..#",
"..#",
"..#",
"..#",
"..#",
"..#",
"..#",
"..#",
"..#",
"..#",
"..#",
"..#",
"..#",
"..#",
"..#",
"..#",
"..#",
"..#",
"..#",
"..#",
"..#",
"..#",
"..#",
"..#",
"..#",
"..#",
"..#",
"..#",
"..#",
"..#",
"..#",
"..#",
"..#",
"..#",
"..#",
"..#",
"..#",
"..#",
"..#",
"..#",
"..#",
"..#",
"..#",
"..#",
"..#",
"..#",
"..#",
"..#",
"..#",
"..#",
"..#",
"..#",
"..#",
"..#",
"..#",
"..#",
"..#",
"..#",
"..#",
"..#",
"..#",
"..#",
"..#",
"..#",
"..#",
"..#",
"..#",
"..#",
"..#",
"..#",
"..#",
"..#",
"..#",
"..#",
"..#",
"..#",
"..#",
"..#",
"..#",
"..#",
"..#",
"..#",
"..#",
"..#",
"..#",
"..#",
"..#",
"..#",
"..#",
"..#",
"..#",
"..#",
"..#",
"..#",
"..#",
"..#",
"..#",
"..#",
"..#",
"..#",
"..#",
"..#",
"..#",
"..#",
"..#",
"..#",
"..#",
"..#",
"..#",
"..#",
"..#",
"..#",
"..#",
"..#",
"..#",
"..#",
"..#",
"..#",
"..#",
"..#",
"..#",
"..#",
"..#",
"..#",
"..#",
"..#",
"..#",
"..#",
"..#",
"..#",
"..#",
"..#",
"..#",
"..#",
"..#",
"..#",
"..#",
"..#",
"..#",
"..#",
"..#",
"..#",
"..#",
"..#",
"..#",
"..#",
"..#",
"..#",
"..#",
"..#",
"..#",
"..#",
"..#",
"..#",
"..#",
"..#",
"..#",
"..#",
"..#",
"..#",
"..#",
"..#",
"..#",
"..#",
"..#",
"..#",
"..#",
"..#",
"..#",
"..#",
"..#",
"..#",
"..#",
"..#",
"..#",
"..#",
"..#",
"..#",
"..#",
"..#",
"..#",
"..#",
"..#",
"..#",
"..#",
"..#",
"..#",
"..#",
"..#",
"..#",
"..#",
"..#",
"..#",
"..#",
"..#",
"..#",
"..#",
"..#",
"..#",
"..#",
"..#",
"..#",
"..#",
"..#",
"..#",
"..#",
"..#",
"..#",
"..#",
"..#",
"..#",
"..#",
"..#",
"..#",
"..#",
"..#",
"..#",
"..#",
"..#",
"..#",
"..#",
"..#",
"..#",
"..#",
"..#",
"..#",
"..#",
"..#",
"..#",
"..#",
"..#",
"..#",
"..#",
"..#",
"..#",
"..#",
"..#",
"..#",
"..#",
"..#",
"..#",
"..#",
"..#",
"..#",
"..#",
"..#",
"..#",
"..#",
"..#",
"..#",
"..#",
"..#",
"..#",
"..#",
"..#",
"..#",
"..#",
"..#",
"..#",
"..#",
"..#",
"..#",
"..#",
"..#",
"..#",
"..#",
"..#",
"..#",
"..#",
"..#",
"..#",
"..#",
"..#",
"..#",
"..#",
"..#",
"..#",
"..#",
"..#",
"..#",
"..#",
"..#",
"..#",
"..#",
"..#",
"..#",
"..#",
"..#",
"..#",
"..#",
"..#",
"..#",
"..#",
"..#",
"..#",
"..#",
"..#",
"..#",
"..#",
"..#",
"..#",
"..#",
"..#",
"..#",
"..#",
"..#",
"..#",
"..#",
"..#",
"..#",
"..#",
"..#",
"..#",
"..#",
"..#",
"..#",
"..#",
"..#",
"..#",
"..#",
"..#"};
